<?xml version="1.0" encoding="UTF-8" standalone="no"?>
<!DOCTYPE svg PUBLIC "-//W3C//DTD SVG 1.1//EN" "http://www.w3.org/Graphics/SVG/1.1/DTD/svg11.dtd">
<!-- Created with Inkscape (http://www.inkscape.org/) -->
<svg
   xmlns:dc="http://purl.org/dc/elements/1.1/"
   xmlns:cc="http://creativecommons.org/ns#"
   xmlns:rdf="http://www.w3.org/1999/02/22-rdf-syntax-ns#"
   xmlns:svg="http://www.w3.org/2000/svg"
   xmlns="http://www.w3.org/2000/svg"
   version="1.1"
   width="400"
   height="70"
   id="svg3812"
   xml:space="preserve"><metadata
     id="metadata3818"><rdf:RDF><cc:Work
         rdf:about=""><dc:format>image/svg+xml</dc:format><dc:type
           rdf:resource="http://purl.org/dc/dcmitype/StillImage" /><dc:title></dc:title></cc:Work></rdf:RDF></metadata><defs
     id="defs3816" /><g
     transform="matrix(1.25,0,0,-1.25,0,69.999951)"
     id="g3820"><g
       transform="matrix(2.3313993,0,0,2.3313993,-69.070267,-1810.738)"
       id="g4028"><path
         d="m 40.688514,786.93539 5.982,0 -3.047,7.715 -2.935,-7.715 z m 5.339,11.712 8.554,-20.07 -4.697,0 -1.844,4.78 -8.721,0 -1.789,-4.78 -4.473,0 8.498,20.07 4.472,0 z"
         id="path3838"
         style="fill:#689e16;fill-opacity:1;fill-rule:nonzero;stroke:none" /><path
         d="m 64.168114,798.65069 c -6.457,0 -9.448,-3.298 -9.448,-10.398 0,-3.634 1.006,-6.261 3.075,-7.91 1.957,-1.566 3.829,-1.761 6.261,-1.761 l 7.128,0 0,3.494 -6.932,0 c -3.55,0 -4.919,1.509 -4.919,6.01 0,4.975 1.369,7.123 4.919,7.123 l 11.39,0 0,-16.6 4.361,0 0,16.6 6.512,-0.004 0,3.446 -22.347,0 z"
         id="path3850"
         style="fill:#689e16;fill-opacity:1;fill-rule:nonzero;stroke:none" /><path
         d="m 91.698214,790.48509 11.683996,0 0,-3.494 -11.711996,0 c 0.028,-3.606 1.454,-4.919 4.781,-4.919 l 6.930996,0 0,-3.494 -7.127996,0 c -2.432,0 -4.305,0.195 -6.261,1.76 -2.069,1.65 -3.075,4.277 -3.075,7.911 0,7.1 2.991,10.398 9.447,10.398 l 7.016996,0 0,-3.494 -6.930996,0 c -3.047,0 -4.585,-1.509 -4.753,-4.668"
         id="path3854"
         style="fill:#689e16;fill-opacity:1;fill-rule:nonzero;stroke:none" /><path
         d="m 120.79831,784.47539 c 0,1.677 -0.895,2.376 -2.767,2.376 l -6.233,0 0,-4.724 6.233,0 c 1.872,0 2.767,0.671 2.767,2.348 m -9,5.926 6.177,0 c 1.872,0 2.767,0.699 2.767,2.32 0,1.621 -0.895,2.32 -2.767,2.32 l -6.177,0 0,-4.64 z m -4.221,-11.824 0,20.07 10.314,0 c 2.349,0 4.054,-0.224 5.144,-0.923 1.454,-0.922 2.263,-2.431 2.263,-4.304 0,-2.236 -0.923,-3.746 -2.99,-4.808 2.041,-0.866 3.047,-2.292 3.047,-4.556 0,-3.802 -2.181,-5.479 -6.736,-5.479 l -11.042,0 z"
         id="path3858"
         style="fill:#689e16;fill-opacity:1;fill-rule:nonzero;stroke:none" /><path
         d="m 128.96222,798.64719 4.41599,0 0,-20.069 -4.41599,0 0,20.069 z"
         id="path3860"
         style="fill:#689e16;fill-opacity:1;fill-rule:nonzero;stroke:none" /><path
         d="m 144.08371,795.06949 c -2.208,0 -3.242,-0.783 -3.242,-2.628 0,-1.453 0.895,-2.18 2.655,-2.18 l 5.591,0 c 4.472,0 6.401,-1.481 6.401,-5.674 0,-4.221 -2.265,-6.01 -7.017,-6.01 l -11.235,0 0,3.578 10.565,0 c 2.236,0 3.27,0.531 3.27,2.264 0,1.789 -0.949,2.32 -2.99,2.32 l -4.976,0 c -4.583,0 -6.679,1.733 -6.679,5.758 0,4.361 2.263,6.15 7.042,6.15 l 11.041,0 0,-3.578 -10.426,0 z"
         id="path3864"
         style="fill:#689e16;fill-opacity:1;fill-rule:nonzero;stroke:none" /><path
         d="m 159.87531,795.92119 0.413,0 c 0.482,0 0.713,0.146 0.713,0.49 0,0.36 -0.249,0.515 -0.755,0.515 l -0.371,0 0,-1.005 z m 0.517,1.538 c 0.988,0 1.477,-0.335 1.477,-0.997 0,-0.455 -0.282,-0.799 -0.756,-0.919 l 0.775,-1.547 -0.938,0 -0.662,1.418 -0.413,0 0,-1.418 -0.84,0 0,3.463 1.357,0 z m -1.874,0.078 c -0.507,-0.508 -0.791,-1.178 -0.791,-1.866 0,-0.687 0.258,-1.332 0.748,-1.821 0.499,-0.507 1.16,-0.791 1.849,-0.791 0.677,0 1.331,0.275 1.847,0.765 0.489,0.473 0.765,1.126 0.765,1.796 0,0.748 -0.249,1.375 -0.74,1.874 -0.507,0.515 -1.142,0.781 -1.864,0.781 -0.705,0 -1.324,-0.249 -1.814,-0.738 m 4.049,0.318 c 0.576,-0.585 0.884,-1.358 0.884,-2.192 0,-0.859 -0.326,-1.633 -0.92,-2.209 -0.609,-0.593 -1.4,-0.911 -2.207,-0.911 -0.835,0 -1.617,0.336 -2.219,0.946 -0.584,0.593 -0.893,1.366 -0.893,2.174 0,0.559 0.148,1.1 0.456,1.624 0.558,0.945 1.529,1.504 2.656,1.504 0.859,0 1.639,-0.326 2.243,-0.936"
         id="path3868"
         style="fill:#689e16;fill-opacity:1;fill-rule:nonzero;stroke:none" /></g></g></svg>